<svg xmlns="http://www.w3.org/2000/svg" xmlns:xlink="http://www.w3.org/1999/xlink" width="77.084" height="77.084" viewBox="0 0 77.084 77.084">
  <defs>
    <linearGradient id="linear-gradient" x1="0.156" y1="0.883" x2="0.84" y2="0.14" gradientUnits="objectBoundingBox">
      <stop offset="0.003" stop-color="#0099db"/>
      <stop offset="0.088" stop-color="#059cdd"/>
      <stop offset="0.676" stop-color="#25b0ea"/>
      <stop offset="1" stop-color="#32b8ef"/>
    </linearGradient>
    <linearGradient id="linear-gradient-2" x1="0.046" y1="0.006" x2="1.183" y2="0.792" gradientUnits="objectBoundingBox">
      <stop offset="0.002" stop-color="#45a1bc"/>
      <stop offset="0.041" stop-color="#47a1bc"/>
      <stop offset="0.659" stop-color="#67afc3"/>
      <stop offset="1" stop-color="#74b4c6"/>
    </linearGradient>
    <linearGradient id="linear-gradient-3" x1="-1.072" y1="0.276" x2="2.206" y2="0.745" xlink:href="#linear-gradient-2"/>
  </defs>
  <g id="Group_9" data-name="Group 9" transform="translate(-28.011 -26.011)">
    <path id="Path_1" data-name="Path 1" d="M381.362,416.218a37.559,37.559,0,1,0,37.551,37.555A37.553,37.553,0,0,0,381.362,416.218Z" transform="translate(-314.807 -389.218)" fill="#74b4c6" stroke="#ced6e3" stroke-miterlimit="10" stroke-width="1.979" opacity="0.6"/>
    <path id="Path_2" data-name="Path 2" d="M369.9,464.7a41.367,41.367,0,0,0-8.907,20.55,37.434,37.434,0,1,1,30.566,4.766,18.29,18.29,0,0,1-5.651-12.756l.008.008c-.008-.134-.016-.272-.02-.414-.012-.325-.012-.658,0-.986,0-.073,0-.142.008-.215.049-.914.154-1.734.2-2.05,0-.024,0-.045.008-.065a.272.272,0,0,0,.008-.044.172.172,0,0,0,0-.028c15.853,4.429,19.787-2.306,20.072-6.654.187-2.83-7.206-8.9-12.407-12.813a10.4,10.4,0,0,0-4.77-20.222,10.273,10.273,0,0,0-2.432.759c.508.662,3.759,5.042,3.759,8.57-.008-.029-.016-.057-.029-.089a.17.17,0,0,1,0-.02c-.158-.792-1.056-4.178-5.192-7.649a0,0,0,0,0,0,0,16.923,16.923,0,0,0-27.749,14.16,8.918,8.918,0,0,1,3.15-1.21,9.081,9.081,0,0,1,8.692,14.648,8.559,8.559,0,0,1-1.023,1.08" transform="translate(-314.97 -389.381)" fill="url(#linear-gradient)"/>
    <path id="Path_3" data-name="Path 3" d="M440.555,554.423a.167.167,0,0,1,0,.028.255.255,0,0,1-.008.045c0,.02,0,.041-.008.065-.045.316-.15,1.137-.2,2.05,0,.073,0,.142-.008.215-.012.329-.012.662,0,.987,0,.142.012.28.02.414l-.008-.008c-.11-.089-1.218-.979-2.322-2.042-1.153-1.116-2.306-2.42-2.306-3.2a.188.188,0,0,1,.272-.175A14.935,14.935,0,0,0,440.555,554.423Z" transform="translate(-369.401 -470.34)" fill="url(#linear-gradient-2)"/>
    <path id="Path_4" data-name="Path 4" d="M458,481.912v.065s-.008-.053-.028-.154C457.984,481.855,457.992,481.884,458,481.912Z" transform="translate(-382.624 -428.189)" fill="url(#linear-gradient-3)"/>
    <path id="Path_5" data-name="Path 5" d="M387.5,485.9a19.878,19.878,0,0,0,2.639-3.954A9.09,9.09,0,0,0,379.9,470.107a8.915,8.915,0,0,0-3.15,1.21,16.923,16.923,0,0,1,27.749-14.16,0,0,0,0,1,0,0c4.137,3.471,5.034,6.857,5.193,7.649a.183.183,0,0,0,0,.02c.02.1.028.154.028.154v-.065c0-3.528-3.252-7.909-3.759-8.57a10.284,10.284,0,0,1,2.432-.759,10.4,10.4,0,0,1,4.77,20.222c5.2,3.91,12.593,9.983,12.407,12.813-.284,4.348-4.218,11.083-20.071,6.654a14.938,14.938,0,0,1-4.571-1.62.188.188,0,0,0-.272.175c0,.779,1.153,2.083,2.306,3.2,1.1,1.064,2.213,1.953,2.322,2.042a18.289,18.289,0,0,0,5.651,12.756,37.542,37.542,0,0,1-30.566-4.766c1.08-8.3,3.171-16.527,7.125-21.155h0" transform="translate(-334.349 -411.187)" fill="#f4f4f4"/>
    <path id="Path_6" data-name="Path 6" d="M440.555,554.423a.167.167,0,0,1,0,.028.255.255,0,0,1-.008.045c0,.02,0,.041-.008.065-.012.065-.029.15-.045.256-.049.325-.11.84-.142,1.506,0,.093-.008.191-.012.288,0,.073,0,.142-.008.215-.012.329-.012.662,0,.987,0,.13,0,.268.012.406-.11-.089-1.218-.979-2.322-2.042-1.153-1.116-2.306-2.42-2.306-3.2a.188.188,0,0,1,.272-.175A14.935,14.935,0,0,0,440.555,554.423Z" transform="translate(-369.401 -470.34)" fill="#f4f4f4"/>
    <path id="Path_7" data-name="Path 7" d="M397.3,419.711" transform="translate(-346.581 -391.293)" fill="#74b4c6"/>
    <path id="Path_8" data-name="Path 8" d="M458,481.912v.065s-.008-.053-.028-.154C457.984,481.855,457.992,481.884,458,481.912Z" transform="translate(-382.624 -428.189)" fill="#f4f4f4"/>
    <path id="Path_9" data-name="Path 9" d="M440.555,554.423a.167.167,0,0,1,0,.028.255.255,0,0,1-.008.045c0,.02,0,.041-.008.065-.045.316-.15,1.137-.2,2.05,0,.073,0,.142-.008.215-.012.329-.012.662,0,.987,0,.142.012.28.02.414l-.008-.008c-.11-.089-1.218-.979-2.322-2.042-1.153-1.116-2.306-2.42-2.306-3.2a.188.188,0,0,1,.272-.175A14.935,14.935,0,0,0,440.555,554.423Z" transform="translate(-369.401 -470.34)" fill="#d2d1d1"/>
    <path id="Path_10" data-name="Path 10" d="M458,481.912v.065s-.008-.053-.028-.154C457.984,481.855,457.992,481.884,458,481.912Z" transform="translate(-382.624 -428.189)" fill="#74b4c6"/>
    <path id="Path_11" data-name="Path 11" d="M458,481.912v.065s-.008-.053-.028-.154C457.984,481.855,457.992,481.884,458,481.912Z" transform="translate(-382.624 -428.189)" fill="#f4f4f4"/>
  </g>
</svg>
